<svg width="36" height="36" viewBox="0 0 36 36" fill="none" xmlns="http://www.w3.org/2000/svg">
<g clip-path="url(#clip0)">
<path d="M30.8653 28.9489C29.8389 28.9489 29.0038 29.7839 29.0038 30.8104C29.0038 31.8369 29.8388 32.6719 30.8653 32.6719C31.8917 32.6719 32.7268 31.8369 32.7268 30.8104C32.7268 29.784 31.8917 28.9489 30.8653 28.9489ZM30.8652 31.5687C30.4472 31.5687 30.107 31.2285 30.107 30.8104C30.107 30.3924 30.4472 30.0522 30.8652 30.0522C31.2833 30.0522 31.6235 30.3924 31.6235 30.8104C31.6235 31.2285 31.2833 31.5687 30.8652 31.5687Z" fill="#303F9F"/>
<path d="M35.8807 30.7139C35.8456 29.351 35.2687 28.0975 34.2564 27.1844L23.1504 17.1673L32.9701 7.34758C33.0346 7.32832 33.0984 7.30434 33.1599 7.27186L35.2864 6.14953C35.5801 5.99442 35.7771 5.71696 35.8267 5.38853C35.8764 5.06003 35.7701 4.73688 35.5352 4.50175L33.1409 2.10754C32.9059 1.87263 32.583 1.76638 32.2542 1.81602C31.9258 1.8656 31.6484 2.06261 31.4932 2.35645L30.3708 4.48277C30.3381 4.54485 30.3129 4.60905 30.2935 4.67423L25.6585 9.30923C25.4431 9.52474 25.4431 9.87391 25.6585 10.0894C25.8741 10.3047 26.2232 10.3047 26.4387 10.0894L30.6921 5.836L31.8067 6.95067L20.9294 17.828L19.8147 16.7134L24.5626 11.9656C24.778 11.7501 24.778 11.4009 24.5626 11.1854C24.3471 10.9701 23.9979 10.9701 23.7824 11.1854L20.3375 14.6303L16.5883 11.2487C17.6513 8.18894 16.8815 4.78476 14.5756 2.47893C12.2137 0.117063 8.67055 -0.635633 5.54882 0.561579C5.37437 0.628516 5.24563 0.779126 5.20682 0.961868C5.168 1.14461 5.22418 1.3346 5.3563 1.46671L9.68699 5.79747C9.8151 5.92558 9.88576 6.09595 9.88576 6.27714C9.88576 6.45834 9.81517 6.62871 9.68699 6.75689L6.87456 9.56932C6.74645 9.6975 6.57608 9.76809 6.39489 9.76809C6.21369 9.76809 6.04332 9.69757 5.91514 9.56932L1.58439 5.23856C1.4522 5.10644 1.26235 5.05026 1.07954 5.08907C0.896799 5.12796 0.74619 5.25663 0.679252 5.43107C-0.517959 8.55267 0.234737 12.0959 2.59667 14.4579C4.84604 16.7072 8.18427 17.4991 11.1958 16.526L14.0946 19.6959C13.9553 19.9681 13.7742 20.222 13.5508 20.4453C12.7152 21.2809 11.4629 21.5442 10.36 21.1161C10.1562 21.0368 9.92492 21.0856 9.77024 21.2402L3.01609 27.9944C1.18768 29.8228 1.18768 32.7979 3.01609 34.6262C3.90196 35.5123 5.07962 36 6.33224 36C7.58478 36 8.76252 35.5123 9.64824 34.6265L16.4024 27.8724C16.5569 27.7178 16.6057 27.4865 16.5265 27.2827C16.0984 26.1799 16.3616 24.9274 17.1971 24.0918C18.0329 23.2562 19.2853 22.993 20.3881 23.421C20.592 23.5003 20.8232 23.4514 20.9778 23.2969L22.2519 22.0229C22.6355 21.6392 22.8467 21.1291 22.8467 20.5867C22.8467 20.0442 22.6355 19.5341 22.2519 19.1505L21.7096 18.6081L22.3693 17.9484L33.5175 28.0036C34.303 28.7121 34.7507 29.6848 34.7779 30.7423C34.8051 31.7998 34.4082 32.7943 33.6601 33.5422C32.9156 34.2868 31.9237 34.6831 30.8732 34.6604C29.8206 34.6369 28.8495 34.1961 28.139 33.4191L19.85 24.3547C19.6442 24.1298 19.2954 24.1143 19.0706 24.3199C18.8458 24.5256 18.8302 24.8745 19.0358 25.0992L27.3248 34.1636C28.2406 35.1649 29.492 35.733 30.8485 35.7633C30.8865 35.7642 30.9244 35.7646 30.9623 35.7646C32.2763 35.7646 33.5075 35.2549 34.4402 34.3224C35.4042 33.3583 35.9157 32.0768 35.8807 30.7139ZM31.3699 4.95351L32.4259 2.95284L34.6899 5.21683L32.6892 6.27285L31.3699 4.95351ZM11.765 15.5137C11.6131 15.3477 11.3759 15.2905 11.1651 15.3691C8.4677 16.3753 5.41037 15.7114 3.37672 13.678C1.53017 11.8313 0.814674 9.15426 1.44517 6.65972L5.13496 10.3495C5.47154 10.686 5.91894 10.8713 6.39482 10.8713C6.87069 10.8713 7.31809 10.686 7.6546 10.3495L10.467 7.53707C10.8035 7.20049 10.9888 6.75309 10.9888 6.27721C10.9888 5.80134 10.8035 5.35394 10.467 5.01743L6.77732 1.32749C9.27165 0.69672 11.949 1.41243 13.7955 3.25905C15.8809 5.34431 16.5217 8.46239 15.4283 11.2028C15.3427 11.4172 15.3997 11.6622 15.5712 11.8169L19.5564 15.4114L19.0345 15.9332L18.4922 15.3909C18.1086 15.0073 17.5985 14.7961 17.056 14.7961C16.5136 14.7961 16.0034 15.0073 15.6198 15.3909L14.3458 16.665C14.1912 16.8196 14.1425 17.0509 14.2217 17.2548C14.3684 17.6327 14.432 18.028 14.4211 18.4183L11.765 15.5137ZM21.4716 21.2427L20.4393 22.2751C19.0196 21.8659 17.4747 22.2541 16.4171 23.3116H16.417C15.3595 24.3692 14.9712 25.9139 15.3806 27.3339L8.86813 33.8463C8.19074 34.5237 7.29017 34.8967 6.33231 34.8967C5.37444 34.8967 4.47374 34.5237 3.79649 33.8463C2.39818 32.448 2.39818 30.1729 3.79649 28.7746L10.3089 22.2621C11.7288 22.6716 13.2735 22.2831 14.3311 21.2256C15.3886 20.168 15.777 18.6233 15.3676 17.2034L16.4 16.171C16.7617 15.8092 17.3504 15.8092 17.7121 16.171L18.6445 17.1034L20.5392 18.9982L21.4716 19.9306C21.8335 20.2924 21.8335 20.8811 21.4716 21.2427Z" fill="#303F9F"/>
<path d="M11.4136 24.3456C11.1981 24.1302 10.8489 24.1302 10.6334 24.3456L5.40792 29.5711C5.19248 29.7866 5.19248 30.1358 5.40792 30.3513C5.51563 30.4589 5.65689 30.5128 5.79801 30.5128C5.93913 30.5128 6.08038 30.4589 6.1881 30.3513L11.4136 25.1258C11.629 24.9103 11.629 24.561 11.4136 24.3456Z" fill="#303F9F"/>
<path d="M13.3443 26.2763C13.1288 26.061 12.7796 26.061 12.5641 26.2763L7.33858 31.5017C7.12314 31.7173 7.12314 32.0664 7.33858 32.2819C7.4463 32.3896 7.58749 32.4434 7.72867 32.4434C7.86979 32.4434 8.01105 32.3896 8.11877 32.2819L13.3443 27.0565C13.5597 26.841 13.5597 26.4918 13.3443 26.2763Z" fill="#303F9F"/>
</g>
<defs>
<clipPath id="clip0">
<rect width="36" height="36" fill="white"/>
</clipPath>
</defs>
</svg>
